<mxfile host="app.diagrams.net" modified="2023-12-13T06:09:46.766Z" agent="Mozilla/5.0 (Windows NT 10.0; Win64; x64; rv:120.0) Gecko/20100101 Firefox/120.0" etag="MPrm8HOimeVhD8SpKKxL" version="22.1.8" type="github">
  <diagram id="CiwGhiM2bAyah1NbgqSa" name="Page-1">
    <mxGraphModel dx="1306" dy="1785" grid="1" gridSize="10" guides="1" tooltips="1" connect="1" arrows="1" fold="1" page="1" pageScale="1" pageWidth="850" pageHeight="1100" math="0" shadow="0">
      <root>
        <mxCell id="0" />
        <mxCell id="1" parent="0" />
        <mxCell id="1SoZ2ksu6iY5cv5EmGTy-5" style="edgeStyle=orthogonalEdgeStyle;rounded=0;orthogonalLoop=1;jettySize=auto;html=1;entryX=0;entryY=0.5;entryDx=0;entryDy=0;" parent="1" source="1SoZ2ksu6iY5cv5EmGTy-1" target="1SoZ2ksu6iY5cv5EmGTy-4" edge="1">
          <mxGeometry relative="1" as="geometry" />
        </mxCell>
        <mxCell id="1SoZ2ksu6iY5cv5EmGTy-6" value="WIFE" style="edgeLabel;html=1;align=center;verticalAlign=middle;resizable=0;points=[];" parent="1SoZ2ksu6iY5cv5EmGTy-5" vertex="1" connectable="0">
          <mxGeometry x="-0.2051" y="-2" relative="1" as="geometry">
            <mxPoint as="offset" />
          </mxGeometry>
        </mxCell>
        <mxCell id="1SoZ2ksu6iY5cv5EmGTy-11" value="FATHER" style="edgeStyle=orthogonalEdgeStyle;rounded=0;orthogonalLoop=1;jettySize=auto;html=1;" parent="1" source="1SoZ2ksu6iY5cv5EmGTy-1" target="1SoZ2ksu6iY5cv5EmGTy-10" edge="1">
          <mxGeometry relative="1" as="geometry" />
        </mxCell>
        <mxCell id="1SoZ2ksu6iY5cv5EmGTy-13" value="MOTHER" style="edgeStyle=orthogonalEdgeStyle;rounded=0;orthogonalLoop=1;jettySize=auto;html=1;" parent="1" source="1SoZ2ksu6iY5cv5EmGTy-1" target="1SoZ2ksu6iY5cv5EmGTy-12" edge="1">
          <mxGeometry relative="1" as="geometry" />
        </mxCell>
        <mxCell id="1SoZ2ksu6iY5cv5EmGTy-15" value="Sibilings (Male)" style="edgeStyle=orthogonalEdgeStyle;rounded=0;orthogonalLoop=1;jettySize=auto;html=1;" parent="1" source="1SoZ2ksu6iY5cv5EmGTy-1" target="1SoZ2ksu6iY5cv5EmGTy-14" edge="1">
          <mxGeometry relative="1" as="geometry" />
        </mxCell>
        <mxCell id="1SoZ2ksu6iY5cv5EmGTy-16" style="edgeStyle=orthogonalEdgeStyle;rounded=0;orthogonalLoop=1;jettySize=auto;html=1;exitX=0.75;exitY=0;exitDx=0;exitDy=0;" parent="1" source="1SoZ2ksu6iY5cv5EmGTy-1" target="1SoZ2ksu6iY5cv5EmGTy-17" edge="1">
          <mxGeometry relative="1" as="geometry">
            <mxPoint x="420" y="80" as="targetPoint" />
          </mxGeometry>
        </mxCell>
        <mxCell id="1SoZ2ksu6iY5cv5EmGTy-19" value="Siblings(Female)" style="edgeLabel;html=1;align=center;verticalAlign=middle;resizable=0;points=[];" parent="1SoZ2ksu6iY5cv5EmGTy-16" vertex="1" connectable="0">
          <mxGeometry x="0.2142" y="1" relative="1" as="geometry">
            <mxPoint as="offset" />
          </mxGeometry>
        </mxCell>
        <mxCell id="1SoZ2ksu6iY5cv5EmGTy-31" style="edgeStyle=orthogonalEdgeStyle;rounded=0;orthogonalLoop=1;jettySize=auto;html=1;exitX=0.75;exitY=1;exitDx=0;exitDy=0;entryX=0.5;entryY=0;entryDx=0;entryDy=0;" parent="1" source="1SoZ2ksu6iY5cv5EmGTy-1" target="1SoZ2ksu6iY5cv5EmGTy-32" edge="1">
          <mxGeometry relative="1" as="geometry">
            <mxPoint x="660" y="350" as="targetPoint" />
          </mxGeometry>
        </mxCell>
        <mxCell id="1SoZ2ksu6iY5cv5EmGTy-33" value="children" style="edgeLabel;html=1;align=center;verticalAlign=middle;resizable=0;points=[];" parent="1SoZ2ksu6iY5cv5EmGTy-31" vertex="1" connectable="0">
          <mxGeometry x="-0.361" y="1" relative="1" as="geometry">
            <mxPoint as="offset" />
          </mxGeometry>
        </mxCell>
        <mxCell id="1SoZ2ksu6iY5cv5EmGTy-1" value="Appa" style="rounded=1;whiteSpace=wrap;html=1;" parent="1" vertex="1">
          <mxGeometry x="290" y="190" width="70" height="30" as="geometry" />
        </mxCell>
        <mxCell id="gH9LQvdI6YOeVvF69I6v-2" value="FATHER" style="edgeStyle=orthogonalEdgeStyle;rounded=0;orthogonalLoop=1;jettySize=auto;html=1;" parent="1" source="1SoZ2ksu6iY5cv5EmGTy-2" target="gH9LQvdI6YOeVvF69I6v-1" edge="1">
          <mxGeometry relative="1" as="geometry" />
        </mxCell>
        <mxCell id="gH9LQvdI6YOeVvF69I6v-4" value="MOTHER" style="edgeStyle=orthogonalEdgeStyle;rounded=0;orthogonalLoop=1;jettySize=auto;html=1;" parent="1" source="1SoZ2ksu6iY5cv5EmGTy-2" target="gH9LQvdI6YOeVvF69I6v-3" edge="1">
          <mxGeometry relative="1" as="geometry" />
        </mxCell>
        <mxCell id="gH9LQvdI6YOeVvF69I6v-9" value="Siblings(Male)" style="edgeStyle=orthogonalEdgeStyle;rounded=0;orthogonalLoop=1;jettySize=auto;html=1;" parent="1" source="1SoZ2ksu6iY5cv5EmGTy-2" target="gH9LQvdI6YOeVvF69I6v-6" edge="1">
          <mxGeometry relative="1" as="geometry" />
        </mxCell>
        <mxCell id="gH9LQvdI6YOeVvF69I6v-11" value="" style="edgeStyle=orthogonalEdgeStyle;rounded=0;orthogonalLoop=1;jettySize=auto;html=1;" parent="1" source="1SoZ2ksu6iY5cv5EmGTy-2" target="gH9LQvdI6YOeVvF69I6v-10" edge="1">
          <mxGeometry relative="1" as="geometry" />
        </mxCell>
        <mxCell id="_ZczTQVzv1Wm6Jj7xhnZ-41" value="Mother" style="edgeLabel;html=1;align=center;verticalAlign=middle;resizable=0;points=[];" vertex="1" connectable="0" parent="gH9LQvdI6YOeVvF69I6v-11">
          <mxGeometry x="0.0714" y="1" relative="1" as="geometry">
            <mxPoint as="offset" />
          </mxGeometry>
        </mxCell>
        <mxCell id="1SoZ2ksu6iY5cv5EmGTy-2" value="Amma" style="rounded=1;whiteSpace=wrap;html=1;" parent="1" vertex="1">
          <mxGeometry x="530" y="80" width="120" height="60" as="geometry" />
        </mxCell>
        <mxCell id="1SoZ2ksu6iY5cv5EmGTy-7" value="YES" style="edgeStyle=orthogonalEdgeStyle;rounded=0;orthogonalLoop=1;jettySize=auto;html=1;entryX=0.5;entryY=1;entryDx=0;entryDy=0;" parent="1" source="1SoZ2ksu6iY5cv5EmGTy-4" target="1SoZ2ksu6iY5cv5EmGTy-2" edge="1">
          <mxGeometry relative="1" as="geometry" />
        </mxCell>
        <mxCell id="1SoZ2ksu6iY5cv5EmGTy-9" value="No" style="edgeStyle=orthogonalEdgeStyle;rounded=0;orthogonalLoop=1;jettySize=auto;html=1;" parent="1" source="1SoZ2ksu6iY5cv5EmGTy-4" target="1SoZ2ksu6iY5cv5EmGTy-8" edge="1">
          <mxGeometry relative="1" as="geometry" />
        </mxCell>
        <mxCell id="1SoZ2ksu6iY5cv5EmGTy-4" value="your mother?" style="rhombus;whiteSpace=wrap;html=1;" parent="1" vertex="1">
          <mxGeometry x="460" y="180" width="80" height="80" as="geometry" />
        </mxCell>
        <mxCell id="1SoZ2ksu6iY5cv5EmGTy-8" value="Chinamma&lt;br&gt;(Step Mother)" style="whiteSpace=wrap;html=1;rounded=1;" parent="1" vertex="1">
          <mxGeometry x="620" y="190" width="120" height="60" as="geometry" />
        </mxCell>
        <mxCell id="1SoZ2ksu6iY5cv5EmGTy-20" style="edgeStyle=orthogonalEdgeStyle;rounded=0;orthogonalLoop=1;jettySize=auto;html=1;entryX=0.5;entryY=1;entryDx=0;entryDy=0;" parent="1" source="1SoZ2ksu6iY5cv5EmGTy-10" target="1SoZ2ksu6iY5cv5EmGTy-12" edge="1">
          <mxGeometry relative="1" as="geometry" />
        </mxCell>
        <mxCell id="1SoZ2ksu6iY5cv5EmGTy-21" value="WIFE" style="edgeLabel;html=1;align=center;verticalAlign=middle;resizable=0;points=[];" parent="1SoZ2ksu6iY5cv5EmGTy-20" vertex="1" connectable="0">
          <mxGeometry x="-0.3165" y="3" relative="1" as="geometry">
            <mxPoint x="5" y="-3" as="offset" />
          </mxGeometry>
        </mxCell>
        <mxCell id="1SoZ2ksu6iY5cv5EmGTy-23" value="FATHER" style="edgeStyle=orthogonalEdgeStyle;rounded=0;orthogonalLoop=1;jettySize=auto;html=1;" parent="1" source="1SoZ2ksu6iY5cv5EmGTy-10" target="1SoZ2ksu6iY5cv5EmGTy-22" edge="1">
          <mxGeometry relative="1" as="geometry" />
        </mxCell>
        <mxCell id="1SoZ2ksu6iY5cv5EmGTy-25" value="MOTHER" style="edgeStyle=orthogonalEdgeStyle;rounded=0;orthogonalLoop=1;jettySize=auto;html=1;" parent="1" source="1SoZ2ksu6iY5cv5EmGTy-10" target="1SoZ2ksu6iY5cv5EmGTy-24" edge="1">
          <mxGeometry relative="1" as="geometry" />
        </mxCell>
        <mxCell id="1SoZ2ksu6iY5cv5EmGTy-10" value="Apparu" style="rounded=1;whiteSpace=wrap;html=1;" parent="1" vertex="1">
          <mxGeometry x="230" y="340" width="120" height="30" as="geometry" />
        </mxCell>
        <mxCell id="1SoZ2ksu6iY5cv5EmGTy-12" value="Appatha" style="whiteSpace=wrap;html=1;rounded=1;fillColor=#dae8fc;strokeColor=#6c8ebf;" parent="1" vertex="1">
          <mxGeometry x="70" y="190" width="90" height="30" as="geometry" />
        </mxCell>
        <mxCell id="1SoZ2ksu6iY5cv5EmGTy-14" value="Periyappa/Chittappa&lt;br&gt;(based on age of Appa)" style="rounded=1;whiteSpace=wrap;html=1;" parent="1" vertex="1">
          <mxGeometry x="170" y="40" width="120" height="60" as="geometry" />
        </mxCell>
        <mxCell id="1SoZ2ksu6iY5cv5EmGTy-17" value="(Periya/chinna) Athai" style="rounded=1;whiteSpace=wrap;html=1;" parent="1" vertex="1">
          <mxGeometry x="390" y="40" width="120" height="60" as="geometry" />
        </mxCell>
        <mxCell id="1SoZ2ksu6iY5cv5EmGTy-22" value="Pattan" style="rounded=1;whiteSpace=wrap;html=1;" parent="1" vertex="1">
          <mxGeometry x="415" y="370" width="115" height="30" as="geometry" />
        </mxCell>
        <mxCell id="1SoZ2ksu6iY5cv5EmGTy-24" value="Pooti" style="rounded=1;whiteSpace=wrap;html=1;" parent="1" vertex="1">
          <mxGeometry x="240" y="470" width="110" height="30" as="geometry" />
        </mxCell>
        <mxCell id="1SoZ2ksu6iY5cv5EmGTy-36" value="" style="edgeStyle=orthogonalEdgeStyle;rounded=0;orthogonalLoop=1;jettySize=auto;html=1;" parent="1" source="1SoZ2ksu6iY5cv5EmGTy-32" target="1SoZ2ksu6iY5cv5EmGTy-35" edge="1">
          <mxGeometry relative="1" as="geometry" />
        </mxCell>
        <mxCell id="1SoZ2ksu6iY5cv5EmGTy-37" value="Yes (sibing-male)" style="edgeLabel;html=1;align=center;verticalAlign=middle;resizable=0;points=[];" parent="1SoZ2ksu6iY5cv5EmGTy-36" vertex="1" connectable="0">
          <mxGeometry x="-0.2409" y="-2" relative="1" as="geometry">
            <mxPoint as="offset" />
          </mxGeometry>
        </mxCell>
        <mxCell id="1SoZ2ksu6iY5cv5EmGTy-38" value="yes(sibling female)" style="edgeStyle=orthogonalEdgeStyle;rounded=0;orthogonalLoop=1;jettySize=auto;html=1;entryX=0.5;entryY=0;entryDx=0;entryDy=0;" parent="1" source="1SoZ2ksu6iY5cv5EmGTy-32" target="1SoZ2ksu6iY5cv5EmGTy-39" edge="1">
          <mxGeometry relative="1" as="geometry">
            <mxPoint x="610" y="510" as="targetPoint" />
          </mxGeometry>
        </mxCell>
        <mxCell id="1SoZ2ksu6iY5cv5EmGTy-32" value="blood sibling? &amp;amp; samemother?" style="rhombus;whiteSpace=wrap;html=1;" parent="1" vertex="1">
          <mxGeometry x="620" y="360" width="80" height="80" as="geometry" />
        </mxCell>
        <mxCell id="1SoZ2ksu6iY5cv5EmGTy-35" value="Annan/Thambi&lt;br&gt;(based on age)" style="whiteSpace=wrap;html=1;" parent="1" vertex="1">
          <mxGeometry x="390" y="440" width="120" height="60" as="geometry" />
        </mxCell>
        <mxCell id="1SoZ2ksu6iY5cv5EmGTy-39" value="Akka/Thangai&lt;br&gt;(based on age)" style="rounded=1;whiteSpace=wrap;html=1;glass=0;sketch=0;shadow=0;" parent="1" vertex="1">
          <mxGeometry x="600" y="520" width="120" height="60" as="geometry" />
        </mxCell>
        <mxCell id="gH9LQvdI6YOeVvF69I6v-1" value="Appuchi" style="whiteSpace=wrap;html=1;rounded=1;" parent="1" vertex="1">
          <mxGeometry x="720" width="120" height="60" as="geometry" />
        </mxCell>
        <mxCell id="gH9LQvdI6YOeVvF69I6v-3" value="Ammuchi" style="rounded=1;whiteSpace=wrap;html=1;" parent="1" vertex="1">
          <mxGeometry x="470" y="-70" width="120" height="60" as="geometry" />
        </mxCell>
        <mxCell id="gH9LQvdI6YOeVvF69I6v-5" value="" style="rounded=0;whiteSpace=wrap;html=1;" parent="1" vertex="1">
          <mxGeometry x="680" y="270" width="120" height="60" as="geometry" />
        </mxCell>
        <mxCell id="gH9LQvdI6YOeVvF69I6v-6" value="Thaai Mamman&lt;br&gt;(periya/chinna)&lt;br&gt;[based on age]" style="rounded=1;whiteSpace=wrap;html=1;" parent="1" vertex="1">
          <mxGeometry x="640" y="-100" width="120" height="60" as="geometry" />
        </mxCell>
        <mxCell id="gH9LQvdI6YOeVvF69I6v-10" value="Amma" style="rounded=1;whiteSpace=wrap;html=1;" parent="1" vertex="1">
          <mxGeometry x="730" y="140" width="120" height="60" as="geometry" />
        </mxCell>
      </root>
    </mxGraphModel>
  </diagram>
</mxfile>
